<?xml version="1.0" standalone="no"?><!DOCTYPE svg PUBLIC "-//W3C//DTD SVG 1.1//EN" "http://www.w3.org/Graphics/SVG/1.1/DTD/svg11.dtd"><svg t="1710597434928" class="icon" viewBox="0 0 1024 1024" version="1.1" xmlns="http://www.w3.org/2000/svg" p-id="2998" xmlns:xlink="http://www.w3.org/1999/xlink" width="200" height="200"><path d="M512 512m-512 0a512 512 0 1 0 1024 0 512 512 0 1 0-1024 0Z" fill="#8EA9E7" p-id="2999"></path><path d="M691.712 103.424c-9.728 2.048-15.872 11.264-13.824 20.992 2.048 9.728 11.264 15.872 20.992 13.824s15.872-11.264 13.824-20.992c-1.536-9.216-11.264-15.872-20.992-13.824z m107.008 48.64c-3.584-17.92-21.504-29.696-39.424-25.6-17.92 3.584-29.696 21.504-25.6 39.424 3.584 17.92 21.504 29.696 39.424 25.6 17.92-3.584 29.184-21.504 25.6-39.424z" fill="#FFFFFF" p-id="3000"></path><path d="M769.024 656.896c-60.928-54.784-122.88-74.24-125.44-75.264-1.536-0.512-3.072 0-4.608 1.024-1.536 1.024-2.048 2.56-2.048 4.096 6.144 275.968-84.992 378.88-102.912 396.288-79.36-68.096-108.544-381.44-109.056-384.512 0-1.536-1.024-2.56-2.048-3.584-1.024-1.024-2.56-1.536-4.096-1.024-153.6 30.72-239.616 173.056-268.8 280.064 2.56 2.56 5.12 5.12 8.192 7.68 26.624-103.424 109.056-243.712 257.024-276.992 4.096 45.568 35.328 327.68 115.2 389.12 1.536 1.536 4.096 1.536 6.144 0 5.12-4.096 115.2-96.256 110.08-399.872 17.408 6.144 67.072 27.648 115.2 70.656 45.056 40.448 96.256 108.032 109.568 211.456l9.728-9.728c-15.36-101.376-67.072-168.448-112.128-209.408z" fill="#6C8BD0" p-id="3001"></path><path d="M532.48 576c117.248 0 212.48 82.432 212.48 184.32s-95.232 184.32-212.48 184.32-212.48-82.432-212.48-184.32 95.232-184.32 212.48-184.32z" fill="#F9C9B0" p-id="3002"></path><path d="M512 1024c140.288 0 267.264-56.32 359.424-147.456-30.208-221.184-231.424-284.672-231.424-284.672-1.024 24.064 3.072 100.864-110.08 107.008-113.152 6.144-109.056-94.72-109.056-94.72-153.088 31.232-234.496 175.616-261.632 279.04C250.88 970.24 375.296 1024 512 1024z" fill="#FC8A97" p-id="3003"></path><path d="M512 1024c140.288 0 267.264-56.32 359.424-147.456-1.536-10.752-3.584-21.504-5.632-31.744-0.512 1.024-1.536 1.536-2.048 2.56-67.584 77.312-104.96 37.888-120.832 5.12 6.144 27.648 3.584 61.44-46.08 84.48-26.112 12.288-67.072 58.88-116.224 65.024-17.92 2.048-52.224-8.704-60.928-6.144-9.728 3.072-33.28 11.264-52.736 10.24-94.72-5.12-219.136-79.36-203.264-158.72-10.752 23.552-38.912 57.344-99.84 19.456-1.536 5.632-3.072 10.752-4.608 16.384 92.16 87.04 216.064 140.8 352.768 140.8z" fill="#F1717F" p-id="3004"></path><path d="M524.8 867.84c11.264 0 20.48 9.216 20.48 20.48s-9.216 20.48-20.48 20.48-20.48-9.216-20.48-20.48 9.216-20.48 20.48-20.48zM524.8 780.8c11.264 0 20.48 9.216 20.48 20.48s-9.216 20.48-20.48 20.48-20.48-9.216-20.48-20.48 9.216-20.48 20.48-20.48z" fill="#FFFFFF" p-id="3005"></path><path d="M591.36 832h102.4c5.632 0 10.24 4.608 10.24 10.24s-4.608 10.24-10.24 10.24h-102.4c-5.632 0-10.24-4.608-10.24-10.24s4.608-10.24 10.24-10.24z" fill="#E85C6C" p-id="3006"></path><path d="M159.232 883.2c68.608 65.024 155.136 111.616 251.904 131.072 5.632-137.216-21.504-321.024-33.792-397.312-124.928 47.104-193.536 173.568-218.112 266.24z" fill="#FCD28A" p-id="3007"></path><path d="M362.496 622.592c12.288 77.312 38.4 255.488 33.28 388.096 9.728 2.048 19.456 4.096 29.184 5.632 6.144-140.8-21.504-328.704-33.792-404.48-9.728 3.072-19.456 6.656-28.672 10.752z" fill="#DEB062" p-id="3008"></path><path d="M673.792 606.208c-11.264 67.072-40.96 258.56-35.84 402.432 89.6-22.528 169.984-69.12 233.984-132.096-22.528-164.864-139.776-241.664-198.144-270.336z" fill="#FCD28A" p-id="3009"></path><path d="M658.944 599.04c-10.752 64.512-41.984 263.168-36.352 412.672 10.24-2.048 20.48-4.608 30.208-7.68-4.096-137.728 23.552-320.512 35.328-391.168-11.264-5.632-21.504-10.24-29.184-13.824z" fill="#DEB062" p-id="3010"></path><path d="M763.392 878.08c-2.048-9.728-5.12-18.432-7.68-25.6-3.584-9.216-1.024 7.168 7.68 25.6zM284.16 872.96c8.192-17.92 6.144-29.696 0 0zM405.504 1012.736c-71.168-27.648-133.12-82.432-121.344-139.776-11.776 26.112-46.08 65.536-122.88 3.072-0.512 2.56-1.536 5.12-2.048 7.68 67.584 63.488 152.064 109.056 246.272 129.024zM555.008 1021.952c-6.656-1.024-11.776-1.536-14.848-0.512-1.536 0.512-4.096 1.024-6.656 2.048 7.168-0.512 14.336-0.512 21.504-1.536z" fill="#E9BA69" p-id="3011"></path><path d="M763.392 878.08c6.144 27.648 3.584 61.44-46.08 84.48-14.336 6.656-33.28 24.064-55.808 39.424 60.416-18.432 116.736-48.128 165.376-86.016-32.256 8.704-52.736-15.872-63.488-37.888z" fill="#E9BA69" p-id="3012"></path><path d="M420.864 604.16c-34.816 7.168-65.536 19.968-93.184 36.864 12.288 47.616 108.032 139.264 135.68 139.776 31.744 0.512 66.56-81.92 66.56-81.92-113.152 6.144-109.056-94.72-109.056-94.72zM601.6 780.8c30.208 0.512 121.856-81.92 132.096-138.24-49.664-36.864-93.696-50.688-93.696-50.688-1.024 23.552 3.072 98.304-104.96 106.496v0.512s32.256 81.408 66.56 81.92z" fill="#FFFFFF" p-id="3013"></path><path d="M381.952 699.904c25.6 27.136 58.368 55.296 79.36 55.296h3.072c20.992-2.56 41.984-32.768 55.808-56.32-4.096 0-7.68 0-11.264-0.512-13.312 22.016-30.208 44.544-45.568 46.592-12.288 1.536-44.544-18.432-72.704-51.712-19.968-22.528-32.768-45.568-38.4-66.048-3.584 1.536-7.168 3.584-10.752 5.632 14.336 35.328 31.232 57.856 40.448 67.072zM596.992 755.2h1.536c21.504 0 59.392-26.624 88.064-61.44 7.168-9.216 25.088-36.352 36.864-58.368-3.072-2.048-6.656-4.608-9.728-6.656-9.728 20.992-24.064 44.032-35.328 58.368-29.184 35.328-66.048 58.88-80.896 57.856-16.896-1.024-31.744-26.112-43.008-48.64-3.584 0.512-6.656 1.024-10.24 1.536 12.288 24.064 29.184 55.296 52.736 57.344z" fill="#C5CFE8" p-id="3014"></path><path d="M300.544 499.2a38.4 37.888 90 1 0 75.776 0 38.4 37.888 90 1 0-75.776 0Z" fill="#F9C9B0" p-id="3015"></path><path d="M723.456 453.632c-20.992-3.072-39.936 11.776-43.008 32.768-3.072 20.992 11.264 40.448 32.256 43.52s39.936-11.776 43.008-32.768c3.072-21.504-11.264-40.96-32.256-43.52z" fill="#F9C9B0" p-id="3016"></path><path d="M307.2 417.28s25.6 222.72 243.2 219.136c207.872-3.584 186.88-292.352 184.832-328.704-2.56-36.352-414.208-224.256-428.032 109.568z" fill="#F9DACA" p-id="3017"></path><path d="M494.592 232.448c110.08 0 221.696 60.416 229.888 76.8 7.68 119.808-14.848 218.112-62.464 269.824-28.16 30.72-66.048 46.592-112.128 47.104h-5.12c-83.968 0-147.968-34.816-189.44-103.936-29.696-49.152-37.376-98.816-37.888-105.472 3.072-66.048 22.016-115.2 57.344-145.92 29.184-25.6 69.632-38.4 119.808-38.4m0-10.24c-94.208 0-181.248 44.544-187.392 195.072 0 0 25.088 219.136 238.08 219.136h5.12c207.872-3.584 186.88-292.352 184.832-328.704-1.536-19.968-125.952-85.504-240.64-85.504z" fill="#F8BEA0" p-id="3018"></path><path d="M362.496 536.064c2.048 2.048 4.096 3.584 6.144 4.096-1.536-1.024-4.096-2.56-6.144-4.096zM767.488 349.696c-11.776-198.144-205.824-212.992-219.136-213.504-13.312-0.512-193.024-11.776-245.76 158.72-34.304 111.104 20.992 211.456 59.904 241.152-16.384-15.36-31.232-64-22.016-74.752 30.72-36.352 36.864-69.632 37.888-102.912 15.872 29.696 47.616 55.808 89.6 69.632 0 0-15.872-25.6-10.24-46.08 0 0-5.12 80.384 119.808 46.08 0 0-11.776-9.728-14.848-51.2 0 0 15.36 58.368 104.96 46.08 28.16-6.144 40.96 31.232 46.08 52.736-4.096 24.576-12.288 42.496-12.288 42.496 21.504-8.704 71.168-88.576 66.048-168.448z" fill="#535353" p-id="3019"></path><path d="M358.4 181.76s-11.776-35.84 35.84-35.84c0 0-34.304 25.088 15.36 51.2l-40.96 25.6s-11.264-32.768-35.84-20.48c0 0-9.216-20.48 25.6-20.48z" fill="#535353" p-id="3020"></path><path d="M295.936 321.024C325.12 230.4 417.792 163.84 527.36 163.84c129.024 0 233.984 91.648 240.128 206.336 0.512-6.656 0.512-13.824 0-20.48-11.776-198.144-205.824-212.992-219.136-213.504-8.704-0.512-92.16-5.632-162.304 41.984-11.776-17.92 8.192-32.256 8.192-32.256-47.616 0-35.84 35.84-35.84 35.84-34.816 0-25.6 20.48-25.6 20.48 9.728-4.608 16.896-2.56 23.04 1.536-22.016 22.528-40.96 51.712-52.736 90.624-3.072 9.216-5.12 17.92-7.168 26.624z" fill="#434343" p-id="3021"></path><path d="M371.2 494.08c-19.968 0-35.84 11.264-35.84 25.6s15.872 25.6 35.84 25.6 35.84-11.264 35.84-25.6-15.872-25.6-35.84-25.6z m312.32 0c-19.968 0-35.84 11.264-35.84 25.6s15.872 25.6 35.84 25.6 35.84-11.264 35.84-25.6-15.872-25.6-35.84-25.6z" fill="#F2B49C" p-id="3022"></path></svg>