<?xml version="1.0" standalone="no"?><!DOCTYPE svg PUBLIC "-//W3C//DTD SVG 1.1//EN" "http://www.w3.org/Graphics/SVG/1.1/DTD/svg11.dtd"><svg t="1710830124141" class="icon" viewBox="0 0 1063 1024" version="1.1" xmlns="http://www.w3.org/2000/svg" p-id="1950" xmlns:xlink="http://www.w3.org/1999/xlink" width="207.6171875" height="200"><path d="M1060.790419 340.652029V64.950987A68.130406 68.130406 0 0 0 994.249723 0H66.767798A68.130406 68.130406 0 0 0 0 64.950987v274.338434h1060.790419z" fill="#55C7F7" p-id="1951"></path><path d="M0 683.802173V958.367709A66.767798 66.767798 0 0 0 66.313595 1021.956088h927.481925a66.767798 66.767798 0 0 0 66.086494-64.269683V683.802173z" fill="#7ECF3B" p-id="1952"></path><path d="M413.324462 443.528942h238.002218v143.755156H413.324462z" fill="#F95F5D" p-id="1953"></path><path d="M0 340.652029v343.150144h1060.109115V340.652029z m706.058106 288.418718a16.124196 16.124196 0 0 1-15.215791 14.98869h-317.941894a16.124196 16.124196 0 0 1-14.988689-14.98869V399.925482a16.124196 16.124196 0 0 1 14.988689-14.988689h317.941894c5.677534 0 11.355068 3.633622 15.215791 14.988689z" fill="#F95F5D" p-id="1954"></path><path d="M414.459969 644.059437h236.63961v378.577955H414.459969zM414.459969 0h236.63961v384.936793H414.459969z" fill="#FDAF42" p-id="1955"></path></svg>