<?xml version="1.0" standalone="no"?><!DOCTYPE svg PUBLIC "-//W3C//DTD SVG 1.1//EN" "http://www.w3.org/Graphics/SVG/1.1/DTD/svg11.dtd"><svg t="1711850217966" class="icon" viewBox="0 0 1024 1024" version="1.1" xmlns="http://www.w3.org/2000/svg" p-id="6807" xmlns:xlink="http://www.w3.org/1999/xlink" width="200" height="200"><path d="M512 512m-450.56 0a450.56 450.56 0 1 0 901.12 0 450.56 450.56 0 1 0-901.12 0Z" fill="#131415" p-id="6808"></path><path d="M717.55776 305.7664l0.67584 0.67584a30.72 30.72 0 0 1 0 43.43808L556.1344 512l162.0992 162.11968a30.72 30.72 0 0 1 0 43.43808l-0.67584 0.67584a30.72 30.72 0 0 1-43.43808 0L512 556.1344l-162.11968 162.0992a30.72 30.72 0 0 1-43.43808 0l-0.67584-0.67584a30.72 30.72 0 0 1 0-43.43808L467.8656 512l-162.0992-162.11968a30.72 30.72 0 0 1 0-43.43808l0.67584-0.67584a30.72 30.72 0 0 1 43.43808 0L512 467.8656l162.11968-162.0992a30.72 30.72 0 0 1 43.43808 0z" fill="#FFFFFF" p-id="6809"></path></svg>