<?xml version="1.0" standalone="no"?><!DOCTYPE svg PUBLIC "-//W3C//DTD SVG 1.1//EN" "http://www.w3.org/Graphics/SVG/1.1/DTD/svg11.dtd"><svg t="1710422098178" class="icon" viewBox="0 0 1024 1024" version="1.1" xmlns="http://www.w3.org/2000/svg" p-id="1927" xmlns:xlink="http://www.w3.org/1999/xlink" width="200" height="200"><path d="M349.105231 0h325.789538C907.657846 0 1024 116.381538 1024 349.105231v325.789538C1024 907.657846 907.618462 1024 674.894769 1024H349.105231C116.342154 1024 0 907.618462 0 674.894769V349.105231C0 116.342154 116.381538 0 349.105231 0z" fill="#F7A647" p-id="1928"></path><path d="M261.947077 384c0-70.695385 56.910769-128 127.054769-128 70.222769 0 127.094154 57.304615 127.094154 128S459.185231 512 389.001846 512c-70.144 0-127.054769-57.304615-127.054769-128z m174.670769 353.004308v-8.861539a188.652308 188.652308 0 0 1 82.944-156.356923 162.382769 162.382769 0 0 0-72.270769-17.092923h-105.944615c-90.624 0-164.115692 73.964308-164.115693 165.297231v10.633846c0 37.376 73.491692 37.376 164.155077 37.376h101.218462a77.154462 77.154462 0 0 1-5.986462-30.995692z m225.555692-394.043077a105.865846 105.865846 0 0 0-105.432615 106.259692c0 58.683077 47.222154 106.259692 105.432615 106.259692a105.826462 105.826462 0 0 0 105.472-106.259692 105.826462 105.826462 0 0 0-105.472-106.259692z m0 0a105.865846 105.865846 0 0 0-105.432615 106.259692c0 58.683077 47.222154 106.259692 105.432615 106.259692a105.826462 105.826462 0 0 0 105.472-106.259692 105.826462 105.826462 0 0 0-105.472-106.259692z m-39.502769 247.965538c-75.224615 0-136.270769 61.44-136.270769 137.216v8.861539c0 30.956308 61.046154 30.956308 136.270769 30.956307h87.906462c75.224615 0 136.192-1.142154 136.192-30.956307v-8.861539c0-75.776-60.967385-137.216-136.192-137.216H622.670769z" fill="#FFFFFF" p-id="1929"></path></svg>