<?xml version="1.0" standalone="no"?><!DOCTYPE svg PUBLIC "-//W3C//DTD SVG 1.1//EN" "http://www.w3.org/Graphics/SVG/1.1/DTD/svg11.dtd"><svg t="1711720855940" class="icon" viewBox="0 0 1234 1024" version="1.1" xmlns="http://www.w3.org/2000/svg" p-id="1984" xmlns:xlink="http://www.w3.org/1999/xlink" width="241.015625" height="200"><path d="M184.711529 361.411765H146.612706C64.512 361.411765 0 426.255059 0 502.392471V883.049412C0 961.927529 67.433412 1024 146.612706 1024h35.147294c82.070588 0 146.582588-64.843294 149.534118-140.980706V502.362353C331.294118 423.454118 263.830588 361.411765 184.711529 361.411765m0.542118 90.352941C215.431529 451.764706 240.941176 475.497412 240.941176 503.567059v376.229647A58.759529 58.759529 0 0 1 182.211765 933.647059h-36.141177C115.862588 933.647059 90.352941 909.884235 90.352941 881.844706V503.567059c0-28.069647 25.509647-51.802353 55.717647-51.802353h39.152941" fill="#F7931E" p-id="1985"></path><path d="M658.281412 0c-3.403294 0-6.836706 0.180706-10.179765 0.542118-40.146824 2.861176-83.154824 34.394353-77.402353 111.796706 0 2.891294 14.336 169.140706-97.490823 295.303529C438.814118 442.036706 421.647059 487.875765 421.647059 536.636235v298.134589a185.916235 185.916235 0 0 0 186.307765 186.337882L969.155765 1024c151.943529 0 246.573176-180.615529 255.156706-481.641412-2.861176-45.869176-20.058353-94.599529-54.452706-128.993882-34.394353-37.285647-83.124706-57.374118-134.746353-57.374118l-209.28753-2.831059c11.474824-34.394353 20.058353-83.154824 14.336-134.746353C826.458353 89.539765 734.057412 0 658.281412 0m2.770823 90.563765c24.214588 3.553882 80.143059 51.440941 89.328941 137.84847a234.646588 234.646588 0 0 1-10.24 96.13553 90.352941 90.352941 0 0 0 84.449883 118.934588l210.522353 2.861176c27.226353 0 51.531294 10.059294 68.336941 28.310589l2.529882 2.620235c15.179294 15.179294 25.479529 40.056471 27.888941 67.072C1126.339765 781.010824 1061.857882 933.647059 969.908706 933.647059l-361.953882-2.891294A96.075294 96.075294 0 0 1 512 834.770824v-298.134589c0-18.221176 4.336941-44.333176 25.118118-65.114353a77.703529 77.703529 0 0 0 3.734588-3.975529c122.608941-138.300235 123.030588-309.308235 120.079059-359.454118l-0.120471-2.379294a71.168 71.168 0 0 1 0.240941-15.149176" fill="#333333" p-id="1986"></path></svg>