<?xml version="1.0" standalone="no"?><!DOCTYPE svg PUBLIC "-//W3C//DTD SVG 1.1//EN" "http://www.w3.org/Graphics/SVG/1.1/DTD/svg11.dtd"><svg t="1710421973617" class="icon" viewBox="0 0 1024 1024" version="1.1" xmlns="http://www.w3.org/2000/svg" p-id="1788" xmlns:xlink="http://www.w3.org/1999/xlink" width="200" height="200"><path d="M635.9 610.3H388.1c-22.8 0-41.3 18.5-41.3 41.3v123.9c0 22.8 18.5 41.3 41.3 41.3h247.8c22.8 0 41.3-18.5 41.3-41.3V651.6c0-22.8-18.5-41.3-41.3-41.3zM635.9 858.1H388.1c-22.8 0-41.3 18.5-41.3 41.3s18.5 41.3 41.3 41.3h247.8c22.8 0 41.3-18.5 41.3-41.3s-18.5-41.3-41.3-41.3z" fill="#009F72" p-id="1789"></path><path d="M512 87.4c-9.8 0-19.6 3.5-27.4 10.4L221.5 331.6c-28.4 25.2-10.5 72.2 27.4 72.2h56.6c22.8 0 41.3 18.5 41.3 41.3v82.6c0 22.8 18.5 41.3 41.3 41.3h247.8c22.8 0 41.3-18.5 41.3-41.3v-82.6c0-22.8 18.5-41.3 41.3-41.3h56.6c38 0 55.8-46.9 27.4-72.2L539.4 97.8c-7.8-7-17.6-10.4-27.4-10.4z" fill="#F9DB88" p-id="1790"></path></svg>