<?xml version="1.0" standalone="no"?><!DOCTYPE svg PUBLIC "-//W3C//DTD SVG 1.1//EN" "http://www.w3.org/Graphics/SVG/1.1/DTD/svg11.dtd"><svg t="1710466316093" class="icon" viewBox="0 0 1024 1024" version="1.1" xmlns="http://www.w3.org/2000/svg" p-id="2892" xmlns:xlink="http://www.w3.org/1999/xlink" width="200" height="200"><path d="M753.443513 265.67151c-23.037417-25.377725-58.800263-59.604744-74.048839 17.698586-5.192561 26.291909-17.296346 46.550208-27.6449 62.895804-11.189602-57.118166-44.794977-116.210968-76.498849-156.032788-11.847814-14.91947-53.936809-74.158541-62.018188-173.292566a17.625452 17.625452 0 0 0-29.509834-11.77468c-104.107182 95.367591-161.261916 226.498028-163.346253 374.156899 0 0-43.332283-36.859866-66.91821-105.460174-6.326148-18.466501-30.862825-21.976964-41.503917-5.667936a164.699244 164.699244 0 0 0-5.667936 9.324669C125.984735 420.863249 87.406204 594.850595 123.059349 756.734155c59.714446 271.146736 454.751289 346.950806 663.879836 176.547058 204.630766-166.747015 139.57749-477.057359-33.495672-667.609703z" fill="#FF6745" p-id="2893"></path><path d="M178.678255 773.77453c-35.324039-163.638792 2.04777-339.344802 80.448121-484.882767a271.402707 271.402707 0 0 1-5.631369-14.992605c-6.362715-18.503068-30.899392-22.013531-41.540484-5.704503a164.62611 164.62611 0 0 0-5.631369 9.324669C125.984735 420.863249 87.369637 594.850595 123.095916 756.770722c27.206092 123.670703 124.219213 206.641969 241.5272 244.233183-91.491454-44.721842-163.163417-121.403528-185.944861-227.229375z m197.573272-397.157748C380.566471 242.597526 428.579373 122.473854 514.512593 30.141351a397.267449 397.267449 0 0 1-1.316424-13.054536c-1.206722-14.91947-17.991125-22.415772-28.851621-12.506026C383.820964 96.25508 322.570689 226.069094 320.37665 379.286197l18.832174 14.736633c9.251534 7.276898 21.794127 6.947792 30.64342 0.292539 5.302263-4.497781 6.070176-11.335872 6.399283-17.735154z" fill="#EF3C15" p-id="2894"></path><path d="M690.328305 463.866426c-17.003807-18.722472-43.478553-44.027063-54.704722 13.091104-3.839569 19.380684-12.798565 34.373288-20.441136 46.440506-8.227649-42.162129-33.093432-85.823518-56.496522-115.260217-8.776159-10.970198-39.858387-54.777857-45.782294-127.985647a13.017969 13.017969 0 0 0-21.830695-8.666457c-76.864523 70.428673-119.063219 167.295525-120.635614 276.339296 0 0-32.032979-27.242659-49.40246-77.888408-4.680618-13.639613-22.818013-16.272461-30.679988-4.205243-1.462693 2.267174-2.852252 4.570916-4.168676 6.911225-59.312206 105.825847-87.871289 234.396571-61.469678 353.971733 44.100197 200.242687 335.870906 256.227266 490.367866 130.362524 151.096198-123.15876 103.04673-352.362771-24.756081-493.110416z" fill="#FF9C0B" p-id="2895"></path><path d="M632.661629 644.801564c-11.518708-12.688863-29.400132-29.802372-37.006135 8.849294-2.59628 13.164238-8.666457 23.293388-13.859018 31.447902-5.558234-28.522516-22.379205-58.068917-38.212857-77.998111-5.960474-7.459735-26.986688-37.07927-31.009094-86.664566a8.812726 8.812726 0 0 0-14.773201-5.850773c-52.035307 47.683795-80.630958 113.249014-81.69141 187.041882 0 0-21.647858-18.429933-33.422538-52.69352-3.181358-9.251534-15.431412-11.006766-20.770242-2.852251a82.203353 82.203353 0 0 0-2.815684 4.680618c-40.150926 71.635395-59.495042 158.629068-41.613619 239.589132 29.838939 135.591652 227.375644 173.475403 331.921634 88.273529a170.111209 170.111209 0 0 0 62.530131-115.77216c6.764956-68.892846-19.490386-152.229786-79.277967-218.050976z" fill="#FFD523" p-id="2896"></path><path d="M579.163629 812.718734c-6.399282-7.057494-16.382163-16.601567-20.623973 4.936589-1.462693 7.313466-4.79032 12.981401-7.679139 17.552317-3.14479-15.943355-12.506026-32.398652-21.318752-43.51512-3.29106-4.132108-14.992604-20.623973-17.296346-48.268873a4.900022 4.900022 0 0 0-8.191082-3.291059c-28.997891 26.584447-44.941246 63.115208-45.526323 104.253452 0 0-12.067218-10.238852-18.649337-29.363565-1.755232-5.155993-8.593322-6.143311-11.555276-1.572395l-1.572395 2.559713c-22.342637 39.931522-33.129999 88.419799-23.183685 133.507314 22.671743 102.863893 208.397201 99.75567 219.76964-15.32171 3.766435-38.395694-10.860496-84.799633-44.173332-121.476663z" fill="#FFFFFF" p-id="2897"></path><path d="M446.6802 969.958243c-9.946313-40.37033 0.841049-83.739181 23.220253-119.428892 0.475375-0.804481 0.987318-1.572395 1.572395-2.340309 2.925386-4.022406 9.800044-3.181358 11.555276 1.426125 6.582119 17.076942 18.649337 26.291909 18.649337 26.291909 0.475375-30.24118 11.335872-57.666676 31.228498-79.716774-4.424647-6.216446-18.06426-21.20905-20.66054-52.730087a4.900022 4.900022 0 0 0-8.191082-3.29106c-28.997891 26.54788-44.941246 63.115208-45.526323 104.216885 0 0-12.067218-10.238852-18.649337-29.363565-1.755232-5.119426-8.593322-6.143311-11.555276-1.572395l-1.572395 2.559713c-22.342637 39.968089-33.129999 88.419799-23.183685 133.543881 9.214967 41.796456 47.025584 66.91821 88.858606 72.988387-22.562041-11.189602-39.858387-28.888189-45.70916-52.583818z" fill="#FFE87B" p-id="2898"></path></svg>