<?xml version="1.0" standalone="no"?><!DOCTYPE svg PUBLIC "-//W3C//DTD SVG 1.1//EN" "http://www.w3.org/Graphics/SVG/1.1/DTD/svg11.dtd"><svg t="1710422113364" class="icon" viewBox="0 0 1024 1024" version="1.1" xmlns="http://www.w3.org/2000/svg" p-id="2062" xmlns:xlink="http://www.w3.org/1999/xlink" width="200" height="200"><path d="M0 0m186.181818 0l651.636364 0q186.181818 0 186.181818 186.181818l0 651.636364q0 186.181818-186.181818 186.181818l-651.636364 0q-186.181818 0-186.181818-186.181818l0-651.636364q0-186.181818 186.181818-186.181818Z" fill="#74A3FF" p-id="2063"></path><path d="M457.541818 583.928242h115.851637v185.359516h-115.851637z m195.894303-109.536969h115.851637v294.896485h-115.851637zM263.757576 548.119273h115.851636v221.168485H263.757576z m435.975757-191.689697v46.343757h58.957576V263.757576h-147.393939v54.768485h42.123636l-141.187879 111.709091-96.814545-99.079758-141.187879 117.915151 40.013576 42.123637 96.907636-82.106182 94.782061 96.892121z" fill="#FFFFFF" p-id="2064"></path></svg>