<?xml version="1.0" standalone="no"?><!DOCTYPE svg PUBLIC "-//W3C//DTD SVG 1.1//EN" "http://www.w3.org/Graphics/SVG/1.1/DTD/svg11.dtd"><svg t="1710421396918" class="icon" viewBox="0 0 1024 1024" version="1.1" xmlns="http://www.w3.org/2000/svg" p-id="1631" xmlns:xlink="http://www.w3.org/1999/xlink" width="200" height="200"><path d="M474.635235 811.367524a107.215047 107.215047 0 0 1 74.472727 0v-126.218433h-74.472727z" fill="#FFFFFF" p-id="1632"></path><path d="M621.397868 914.345329a109.52627 109.52627 0 1 1-109.526269-109.654671 109.654671 109.654671 0 0 1 109.526269 109.654671z" fill="#98D24D" p-id="1633"></path><path d="M265.597994 877.108966a17.205768 17.205768 0 0 0-17.077367 17.077366v40.317994a17.205768 17.205768 0 0 0 17.077367 17.077367h143.295799a109.141066 109.141066 0 0 1 0-74.472727zM758.145204 877.108966H614.849404a109.141066 109.141066 0 0 1 0 74.472727h143.2958a17.205768 17.205768 0 0 0 17.077367-17.077367v-40.317994a17.205768 17.205768 0 0 0-17.077367-17.077366z" fill="#FFFFFF" p-id="1634"></path><path d="M637.319624 877.108966h-22.47022a109.141066 109.141066 0 0 1 0 74.472727h22.47022a131.226082 131.226082 0 0 0 0-74.472727z m-250.89605 0a131.226082 131.226082 0 0 0 0 74.472727h22.470219a109.141066 109.141066 0 0 1 0-74.472727zM511.871599 783.247649a131.868088 131.868088 0 0 0-37.236364 5.392853v22.470219a107.215047 107.215047 0 0 1 74.472727 0v-22.213417a131.868088 131.868088 0 0 0-37.236363-5.649655z" fill="#E1E4EA" p-id="1635"></path><path d="M991.707085 17.077367A17.077367 17.077367 0 0 0 974.758119 0H48.985078A17.077367 17.077367 0 0 0 32.036113 17.077367v144.965015h959.670972z" fill="#2A4251" p-id="1636"></path><path d="M32.036113 162.042382v144.451411a17.077367 17.077367 0 0 0 16.948965 16.948966h925.773041a16.948966 16.948966 0 0 0 16.948966-16.948966V162.042382z" fill="#122C3D" p-id="1637"></path><path d="M751.083135 235.4879a17.077367 17.077367 0 0 1-16.948966 16.948965h-14.766144a17.077367 17.077367 0 0 1-17.077367-16.948965V88.08326a17.205768 17.205768 0 0 1 17.077367-17.077367h14.894546A17.077367 17.077367 0 0 1 751.083135 88.08326zM799.875611 71.005893H815.283762a17.077367 17.077367 0 0 1 17.077367 17.077367v147.40464A16.948966 16.948966 0 0 1 815.283762 252.436865h-15.408151a17.077367 17.077367 0 0 1-17.077366-17.077367V88.08326a17.077367 17.077367 0 0 1 17.077366-17.077367zM912.483511 235.4879a17.077367 17.077367 0 0 1-17.077367 16.948965h-14.894545a17.077367 17.077367 0 0 1-16.948966-16.948965V88.08326a17.077367 17.077367 0 0 1 16.948966-17.077367h14.894545a17.205768 17.205768 0 0 1 17.077367 17.077367z" fill="#FFDA24" p-id="1638"></path><path d="M293.461066 161.78558a67.410658 67.410658 0 1 1-67.410658-67.410658 67.282257 67.282257 0 0 1 67.410658 67.410658z" fill="#98D24D" p-id="1639"></path><path d="M275.998495 115.561129a67.025455 67.025455 0 0 1-49.306081 112.864702 68.052665 68.052665 0 0 1-38.520376-11.941317l106.187837 106.316238h188.878244z" fill="#0F2534" p-id="1640"></path><path d="M991.707085 378.783699a16.948966 16.948966 0 0 0-16.948966-16.948965H48.985078A17.077367 17.077367 0 0 0 32.036113 378.783699v144.965016h959.670972z" fill="#2A4251" p-id="1641"></path><path d="M32.036113 523.748715V667.68652a17.077367 17.077367 0 0 0 16.948965 16.948966h925.773041A16.948966 16.948966 0 0 0 991.707085 667.68652V523.748715z" fill="#122C3D" p-id="1642"></path><path d="M719.368025 432.840627h14.894546A17.077367 17.077367 0 0 1 751.083135 449.404389v147.789843a16.948966 16.948966 0 0 1-16.948966 16.948965h-14.766144a17.077367 17.077367 0 0 1-17.077367-17.077366V449.404389a16.948966 16.948966 0 0 1 17.077367-16.563762zM799.875611 432.840627H815.283762A17.077367 17.077367 0 0 1 831.847524 449.404389v147.789843A16.948966 16.948966 0 0 1 815.283762 614.143197h-15.408151a17.077367 17.077367 0 0 1-17.077366-17.077366V449.404389a16.948966 16.948966 0 0 1 16.948965-16.948966zM880.511599 432.840627h14.894545A17.077367 17.077367 0 0 1 912.483511 449.404389v147.789843a16.948966 16.948966 0 0 1-16.948966 16.948965h-15.022946a17.077367 17.077367 0 0 1-17.077367-17.077366V449.404389a16.948966 16.948966 0 0 1 16.948965-16.948966z" fill="#FFDA24" p-id="1643"></path><path d="M293.461066 523.491912a67.410658 67.410658 0 1 1-67.410658-67.410658 67.410658 67.410658 0 0 1 67.410658 67.410658z" fill="#98D24D" p-id="1644"></path><path d="M275.998495 477.652665a66.255047 66.255047 0 0 1 18.104577 45.454043 67.282257 67.282257 0 0 1-105.802633 55.340941l106.187837 106.187837h188.749843z" fill="#0F2534" p-id="1645"></path><path d="M474.635235 361.834734h74.472727v-6.933668h-74.472727z m0-38.520377v6.933668h74.472727v-6.933668z" fill="#E1E4EA" p-id="1646"></path><path d="M474.635235 330.376426h74.472727v24.52464h-74.472727z" fill="#FFFFFF" p-id="1647"></path><path d="M991.707085 306.493793V160.501567L909.016677 77.81116a16.306959 16.306959 0 0 1 3.723636 10.015298v147.661442a17.077367 17.077367 0 0 1-17.077366 16.948965h-15.151348a17.077367 17.077367 0 0 1-16.948966-16.948965V113.121505L828.123887 77.81116a16.692163 16.692163 0 0 1 3.723637 10.143699v147.533041A17.077367 17.077367 0 0 1 815.283762 252.436865h-15.279749a17.077367 17.077367 0 0 1-17.077367-16.948965V112.736301L747.4879 77.040752a16.820564 16.820564 0 0 1 3.852037 10.528903v147.918245a17.077367 17.077367 0 0 1-16.948965 16.948965h-15.022947a15.921755 15.921755 0 0 1-10.400501-3.980439l74.857931 74.986333h190.932664a16.948966 16.948966 0 0 0 16.948966-16.948966z" fill="#0F2534" p-id="1648"></path><path d="M747.359498 77.040752a16.820564 16.820564 0 0 1 3.852038 10.528903v73.959122h31.71511v-48.792476L747.4879 77.040752zM909.016677 77.040752a16.306959 16.306959 0 0 1 3.723636 10.015298v73.959122h79.223574v-0.513605zM828.123887 77.040752a16.692163 16.692163 0 0 1 3.723637 10.143699v73.959123h31.715109V113.121505L828.123887 77.81116zM321.709342 162.042382L275.998495 115.561129a66.640251 66.640251 0 0 1 18.104577 45.582445z" fill="#243845" p-id="1649"></path><path d="M991.707085 667.68652V522.336301l-82.690408-82.818809a16.820564 16.820564 0 0 1 3.723636 10.015298v147.661442a17.077367 17.077367 0 0 1-17.077366 16.948965h-15.151348a16.948966 16.948966 0 0 1-16.948966-16.948965V475.084639L828.123887 439.517492a16.692163 16.692163 0 0 1 3.723637 10.143699v147.533041A17.077367 17.077367 0 0 1 815.283762 614.143197h-15.279749a17.077367 17.077367 0 0 1-17.077367-16.948965V475.084639l-35.438746-35.438746A16.692163 16.692163 0 0 1 751.083135 449.404389v147.789843a16.948966 16.948966 0 0 1-16.948966 16.948965h-14.766144a16.435361 16.435361 0 0 1-10.400501-3.852037l74.857931 74.857931h190.932664A16.948966 16.948966 0 0 0 991.707085 667.68652z" fill="#0F2534" p-id="1650"></path><path d="M747.359498 439.389091A16.692163 16.692163 0 0 1 751.083135 449.404389v73.959122h31.71511V475.084639l-35.438747-35.438746z m161.657179 0a16.820564 16.820564 0 0 1 3.723636 10.015298v73.959122h79.223574v-1.412414z m-80.89279 0a16.692163 16.692163 0 0 1 3.723637 10.143699v73.959122h31.715109V475.084639L828.123887 439.517492zM321.709342 523.748715L275.998495 477.652665a66.255047 66.255047 0 0 1 18.104577 45.454043z" fill="#243845" p-id="1651"></path></svg>